<svg width="304" height="304" viewBox="0 0 304 304" fill="none" xmlns="http://www.w3.org/2000/svg">
<path d="M136.516 141.293C135.908 141.581 135.434 141.8 134.966 142.029C126.539 146.163 118.114 150.3 109.689 154.436C105.21 156.635 100.727 158.828 96.2566 161.045C95.829 161.256 95.6141 161.238 95.3486 160.818C92.9389 157.014 90.513 153.22 88.0749 149.435C87.8419 149.072 87.8966 148.865 88.1803 148.565C93.5935 142.836 98.9966 137.098 104.4 131.361C110.53 124.849 116.657 118.335 122.788 111.826C128.556 105.703 134.332 99.5866 140.101 93.462C146.206 86.9828 152.302 80.4975 158.406 74.0182C163.212 68.9151 168.023 63.818 172.832 58.7189C174.77 56.6639 176.709 54.6088 178.651 52.5578C179.147 52.0329 179.161 52.0329 179.467 52.7321C181.352 57.053 183.233 61.3759 185.114 65.6987C185.13 65.7372 185.14 65.7818 185.164 65.8163C186.188 67.2147 185.772 68.4388 184.984 69.8534C181.174 76.6772 177.475 83.5618 173.738 90.4261C173.61 90.6592 173.499 90.9003 173.31 91.2753C174.551 90.7828 175.649 90.3491 176.746 89.9113C184.848 86.6727 192.953 83.4341 201.056 80.1935C202.908 79.4517 204.762 78.716 206.609 77.958C207.016 77.7898 207.206 77.806 207.401 78.2762C210.244 85.1912 213.108 92.0961 215.986 98.9948C216.17 99.4346 216.029 99.7042 215.779 100.022C212.922 103.666 210.07 107.314 207.217 110.96C203.642 115.526 200.064 120.09 196.491 124.656C191.149 131.48 185.809 138.306 180.469 145.132C175.665 151.273 170.868 157.418 166.063 163.556C160.275 170.95 154.479 178.335 148.693 185.728C141.597 194.795 134.51 203.869 127.417 212.936C121.604 220.364 115.786 227.785 109.971 235.211C105.729 240.628 101.483 246.044 97.2578 251.475C96.9234 251.905 96.741 251.923 96.3539 251.548C93.6543 248.93 90.9386 246.327 88.2168 243.733C87.9533 243.482 87.9371 243.3 88.0932 242.973C92.637 233.472 97.1686 223.965 101.7 214.456C106.276 204.852 110.847 195.243 115.423 185.639C118.436 179.314 121.462 172.99 124.478 166.665C128.444 158.346 132.406 150.024 136.368 141.703C136.405 141.628 136.427 141.545 136.518 141.293H136.516ZM150.065 122.257C150.099 122.301 150.133 122.348 150.168 122.393C131.065 162.324 111.959 202.256 92.8558 242.187C92.9106 242.217 92.9633 242.246 93.018 242.276C130.605 189.56 168.191 136.845 205.776 84.1313C205.741 84.0867 205.707 84.0421 205.672 83.9975C187.54 91.0969 169.409 98.1943 151.277 105.294C151.246 105.257 151.214 105.219 151.183 105.182C159.56 90.8152 167.936 76.4461 176.312 62.0791C176.265 62.0487 176.221 62.0203 176.174 61.9899C148.526 91.2611 120.877 120.53 93.2287 149.801C93.2612 149.846 93.2916 149.891 93.324 149.935C112.237 140.71 131.152 131.484 150.065 122.259V122.257Z" fill="#fff"/>
</svg>
